<svg class="svg-inline--fa fa-w-21 svg-icon-text" xmlns="http://www.w3.org/2000/svg" viewBox="5 5 40 40">
    <g id="XMLID_67_">
        <g id="XMLID_68_">
            <g id="XMLID_70_">
                <path id="XMLID_87_" class="st0" d="M22.2,30.5c-2.2,0-4.3-0.9-5.9-2.4S14,24.5,14,22.2s0.9-4.3,2.4-5.9c3.2-3.2,8.5-3.2,11.7,0
				c1.6,1.6,2.4,3.6,2.4,5.9s-0.9,4.3-2.4,5.9S24.5,30.5,22.2,30.5z M22.2,15.2c-1.9,0-3.6,0.7-5,2.1c-1.3,1.3-2.1,3.1-2.1,5
				s0.7,3.6,2.1,5l0,0c1.3,1.3,3.1,2.1,5,2.1s3.6-0.7,5-2.1c1.3-1.3,2.1-3.1,2.1-5s-0.7-3.6-2.1-5C25.9,15.9,24.1,15.2,22.2,15.2z"></path>
            </g>
            <g id="XMLID_69_">

                <rect id="XMLID_66_" x="26" y="31" transform="matrix(0.7071 0.7072 -0.7072 0.7071 31.6291 -13.1016)" class="st0" width="11.2" height="1.3"></rect>
            </g>
        </g>
    </g>
</svg>